HIERARCHY
ROOT Hips
{
  OFFSET 5.80788e-005 67.184 3.4734
  CHANNELS 6 Xposition Yposition Zposition Zrotation Xrotation Yrotation
  JOINT Chest
  {
    OFFSET 0 8.7983 -4.7612
    CHANNELS 6 Xposition Yposition Zposition Zrotation Xrotation Yrotation
    JOINT Chest2
    {
      OFFSET 0 8.0291 0.4195
      CHANNELS 6 Xposition Yposition Zposition Zrotation Xrotation Yrotation
      JOINT Chest3
      {
        OFFSET 0 9.9351 -2.2114
        CHANNELS 6 Xposition Yposition Zposition Zrotation Xrotation Yrotation
        JOINT Neck
        {
          OFFSET 0 22.3885 -0.4656
          CHANNELS 6 Xposition Yposition Zposition Zrotation Xrotation Yrotation
          JOINT Head
          {
            OFFSET -0.0001 12.643 3.4389
            CHANNELS 6 Xposition Yposition Zposition Zrotation Xrotation Yrotation
            End Site
            {
              OFFSET 0.0001 17.6655 0.5274
            }
          }
        }
        JOINT LeftCollar
        {
          OFFSET 2.2603 21.606 7.4023
          CHANNELS 6 Xposition Yposition Zposition Zrotation Xrotation Yrotation
          JOINT LeftShoulder
          {
            OFFSET 13.5163 -1.1332 -5.0146
            CHANNELS 6 Xposition Yposition Zposition Zrotation Xrotation Yrotation
            JOINT LeftElbow
            {
              OFFSET -0.0995 -28.05 -0.2431
              CHANNELS 6 Xposition Yposition Zposition Zrotation Xrotation Yrotation
              JOINT LeftWrist
              {
                OFFSET 0.0679 -23.3996 -0.1402
                CHANNELS 6 Xposition Yposition Zposition Zrotation Xrotation Yrotation
                JOINT LeftFinger1
                {
                  OFFSET 0.7932 -9.069 2.5189
                  CHANNELS 6 Xposition Yposition Zposition Zrotation Xrotation Yrotation
                  JOINT LeftFinger11
                  {
                    OFFSET -0.8272 -3.3923 0.5977
                    CHANNELS 6 Xposition Yposition Zposition Zrotation Xrotation Yrotation
                    JOINT LeftFinger12
                    {
                      OFFSET -0.5649 -2.3158 0.4082
                      CHANNELS 6 Xposition Yposition Zposition Zrotation Xrotation Yrotation
                      End Site
                      {
                        OFFSET -0.4919 -1.6479 0.2673
                      }
                    }
                  }
                }
                JOINT LeftFinger2
                {
                  OFFSET 0.9159 -9.2044 0.2193
                  CHANNELS 6 Xposition Yposition Zposition Zrotation Xrotation Yrotation
                  JOINT LeftFinger21
                  {
                    OFFSET 0.0117 -4.1944 -0.0248
                    CHANNELS 6 Xposition Yposition Zposition Zrotation Xrotation Yrotation
                    JOINT LeftFinger22
                    {
                      OFFSET 0.0071 -2.3249 -0.0142
                      CHANNELS 6 Xposition Yposition Zposition Zrotation Xrotation Yrotation
                      End Site
                      {
                        OFFSET -0.1475 -2.0882 0.0028
                      }
                    }
                  }
                }
                JOINT LeftFinger3
                {
                  OFFSET 0.6113 -8.7231 -2.0637
                  CHANNELS 6 Xposition Yposition Zposition Zrotation Xrotation Yrotation
                  JOINT LeftFinger31
                  {
                    OFFSET -0.1927 -3.8059 -0.2383
                    CHANNELS 6 Xposition Yposition Zposition Zrotation Xrotation Yrotation
                    JOINT LeftFinger32
                    {
                      OFFSET -0.1091 -2.1688 -0.1362
                      CHANNELS 6 Xposition Yposition Zposition Zrotation Xrotation Yrotation
                      End Site
                      {
                        OFFSET -0.2358 -1.9176 -0.0906
                      }
                    }
                  }
                }
                JOINT LeftFinger4
                {
                  OFFSET -0.6151 -8.0947 -3.5641
                  CHANNELS 6 Xposition Yposition Zposition Zrotation Xrotation Yrotation
                  JOINT LeftFinger41
                  {
                    OFFSET -0.4882 -2.341 -0.6462
                    CHANNELS 6 Xposition Yposition Zposition Zrotation Xrotation Yrotation
                    JOINT LeftFinger42
                    {
                      OFFSET -0.3575 -1.7167 -0.4742
                      CHANNELS 6 Xposition Yposition Zposition Zrotation Xrotation Yrotation
                      End Site
                      {
                        OFFSET -0.4187 -1.5237 -0.3496
                      }
                    }
                  }
                }
                JOINT LeftFinger0
                {
                  OFFSET -1.42 -1.8761 1.4223
                  CHANNELS 6 Xposition Yposition Zposition Zrotation Xrotation Yrotation
                  JOINT LeftFinger01
                  {
                    OFFSET -1.1471 -3.4929 2.6334
                    CHANNELS 6 Xposition Yposition Zposition Zrotation Xrotation Yrotation
                    JOINT LeftFinger02
                    {
                      OFFSET -0.823 -2.3 1.6571
                      CHANNELS 6 Xposition Yposition Zposition Zrotation Xrotation Yrotation
                      End Site
                      {
                        OFFSET -0.5822 -1.6914 1.1582
                      }
                    }
                  }
                }
              }
            }
          }
        }
        JOINT RightCollar
        {
          OFFSET -2.2603 21.606 7.4023
          CHANNELS 6 Xposition Yposition Zposition Zrotation Xrotation Yrotation
          JOINT RightShoulder
          {
            OFFSET -13.5187 -1.1334 -5.0155
            CHANNELS 6 Xposition Yposition Zposition Zrotation Xrotation Yrotation
            JOINT RightElbow
            {
              OFFSET 0.0994 -28.0499 -0.2431
              CHANNELS 6 Xposition Yposition Zposition Zrotation Xrotation Yrotation
              JOINT RightWrist
              {
                OFFSET -0.0679 -23.3996 -0.1402
                CHANNELS 6 Xposition Yposition Zposition Zrotation Xrotation Yrotation
                JOINT RightFinger1
                {
                  OFFSET -0.7932 -9.0691 2.5189
                  CHANNELS 6 Xposition Yposition Zposition Zrotation Xrotation Yrotation
                  JOINT RightFinger11
                  {
                    OFFSET 0.8272 -3.3923 0.5977
                    CHANNELS 6 Xposition Yposition Zposition Zrotation Xrotation Yrotation
                    JOINT RightFinger12
                    {
                      OFFSET 0.565 -2.3158 0.4082
                      CHANNELS 6 Xposition Yposition Zposition Zrotation Xrotation Yrotation
                      End Site
                      {
                        OFFSET 0.4919 -1.6479 0.2673
                      }
                    }
                  }
                }
                JOINT RightFinger2
                {
                  OFFSET -0.916 -9.2044 0.2193
                  CHANNELS 6 Xposition Yposition Zposition Zrotation Xrotation Yrotation
                  JOINT RightFinger21
                  {
                    OFFSET -0.0117 -4.1944 -0.0248
                    CHANNELS 6 Xposition Yposition Zposition Zrotation Xrotation Yrotation
                    JOINT RightFinger22
                    {
                      OFFSET -0.0071 -2.3249 -0.0142
                      CHANNELS 6 Xposition Yposition Zposition Zrotation Xrotation Yrotation
                      End Site
                      {
                        OFFSET 0.1475 -2.0882 0.0028
                      }
                    }
                  }
                }
                JOINT RightFinger3
                {
                  OFFSET -0.6113 -8.7231 -2.0637
                  CHANNELS 6 Xposition Yposition Zposition Zrotation Xrotation Yrotation
                  JOINT RightFinger31
                  {
                    OFFSET 0.1927 -3.8059 -0.2383
                    CHANNELS 6 Xposition Yposition Zposition Zrotation Xrotation Yrotation
                    JOINT RightFinger32
                    {
                      OFFSET 0.1091 -2.1688 -0.1362
                      CHANNELS 6 Xposition Yposition Zposition Zrotation Xrotation Yrotation
                      End Site
                      {
                        OFFSET 0.2358 -1.9176 -0.0906
                      }
                    }
                  }
                }
                JOINT RightFinger4
                {
                  OFFSET 0.6151 -8.0947 -3.564
                  CHANNELS 6 Xposition Yposition Zposition Zrotation Xrotation Yrotation
                  JOINT RightFinger41
                  {
                    OFFSET 0.4882 -2.341 -0.6462
                    CHANNELS 6 Xposition Yposition Zposition Zrotation Xrotation Yrotation
                    JOINT RightFinger42
                    {
                      OFFSET 0.3574 -1.7166 -0.4742
                      CHANNELS 6 Xposition Yposition Zposition Zrotation Xrotation Yrotation
                      End Site
                      {
                        OFFSET 0.4187 -1.5237 -0.3496
                      }
                    }
                  }
                }
                JOINT RightFinger0
                {
                  OFFSET 1.4199 -1.8761 1.4221
                  CHANNELS 6 Xposition Yposition Zposition Zrotation Xrotation Yrotation
                  JOINT RightFinger01
                  {
                    OFFSET 1.1472 -3.4929 2.6336
                    CHANNELS 6 Xposition Yposition Zposition Zrotation Xrotation Yrotation
                    JOINT RightFinger02
                    {
                      OFFSET 0.8229 -2.3 1.6571
                      CHANNELS 6 Xposition Yposition Zposition Zrotation Xrotation Yrotation
                      End Site
                      {
                        OFFSET 0.5822 -1.6914 1.1582
                      }
                    }
                  }
                }
              }
            }
          }
        }
      }
    }
  }
  JOINT RightHip
  {
    OFFSET -9.412 3.9771 -0.7758
    CHANNELS 6 Xposition Yposition Zposition Zrotation Xrotation Yrotation
    JOINT RightKnee
    {
      OFFSET -0.7531 -40.938 0
      CHANNELS 6 Xposition Yposition Zposition Zrotation Xrotation Yrotation
      JOINT RightAnkle
      {
        OFFSET 0 -40.1986 0
        CHANNELS 6 Xposition Yposition Zposition Zrotation Xrotation Yrotation
        JOINT RightToe
        {
          OFFSET 0 -4.4182 9.239
          CHANNELS 6 Xposition Yposition Zposition Zrotation Xrotation Yrotation
          End Site
          {
            OFFSET 0 0 6.1981
          }
        }
      }
    }
  }
  JOINT LeftHip
  {
    OFFSET 9.4119 3.9773 -0.7758
    CHANNELS 6 Xposition Yposition Zposition Zrotation Xrotation Yrotation
    JOINT LeftKnee
    {
      OFFSET 0.7532 -40.9383 0
      CHANNELS 6 Xposition Yposition Zposition Zrotation Xrotation Yrotation
      JOINT LeftAnkle
      {
        OFFSET 0 -40.1986 0
        CHANNELS 6 Xposition Yposition Zposition Zrotation Xrotation Yrotation
        JOINT LeftToe
        {
          OFFSET 0 -4.4182 9.239
          CHANNELS 6 Xposition Yposition Zposition Zrotation Xrotation Yrotation
          End Site
          {
            OFFSET 0 0 6.1981
          }
        }
      }
    }
  }
}
MOTION
Frames:	4
Frame Time:	0.0333333
-0.000351508 5.8073 -7.65758 -1.52633e-007 85.7025 1.74613e-007 5.42101e-020 8.7983 -4.7612 -0.309987 0.0826676 -0.108322 1.04083e-017 8.0291 0.4195 -0.619827 0.165953 -0.216199 2.77556e-017 9.9351 -2.2114 -0.619827 0.165947 -0.216199 1.11022e-016 22.3885 -0.4656 24.8488 14.5837 -6.65295 -0.0001 12.643 3.4389 19.4399 21.8116 -7.47378 2.2603 21.606 7.4023 -8.00265 -0.194477 -12.5014 13.5163 -1.1332 -5.0146 41.0906 -54.0592 46.1147 -0.0995 -28.05 -0.2431 -162.624 -57.0654 154.779 0.0679 -23.3996 -0.1402 -6.61522 1.42846 -7.33667 0.7932 -9.069 2.5189 3.34401e-006 2.75107e-006 -1.94924e-006 -0.8272 -3.3923 0.5977 -3.34401e-006 -2.75107e-006 1.94924e-006 -0.5649 -2.3158 0.4082 3.34401e-006 2.75107e-006 -1.94924e-006 0.9159 -9.2044 0.2193 3.34401e-006 2.75107e-006 -1.94924e-006 0.0117 -4.1944 -0.0248 -0.0128247 0.00232854 8.19342e-005 0.0071 -2.3249 -0.0142 3.97569e-016 0 6.16232e-015 0.6113 -8.7231 -2.0637 3.34401e-006 2.75107e-006 -1.94924e-006 -0.1927 -3.8059 -0.2383 -0.0160325 0.00299783 0.000850048 -0.1091 -2.1688 -0.1362 -9.93923e-016 1.27222e-014 1.52816e-015 -0.6151 -8.0947 -3.5641 3.34401e-006 2.75107e-006 -1.94924e-006 -0.4882 -2.341 -0.6462 -0.0126203 0.00312441 0.00283105 -0.3575 -1.7167 -0.4742 1.64271e-006 2.75306e-006 -1.81822e-006 -1.42 -1.8761 1.4223 3.34401e-006 2.75107e-006 -1.94924e-006 -1.1471 -3.4929 2.6334 -3.34401e-006 -2.75107e-006 1.94924e-006 -0.823 -2.3 1.6571 3.34401e-006 2.75107e-006 -1.94924e-006 -2.2603 21.606 7.4023 7.13352 -0.0288749 7.03565 -13.5187 -1.1334 -5.0155 -34.14 -56.0263 -38.6237 0.0994 -28.0499 -0.2431 166.972 -56.5747 -151.635 -0.0679 -23.3996 -0.1402 6.45465 1.28457 7.50891 -0.7932 -9.0691 2.5189 7.95139e-016 -7.95139e-016 2.28602e-015 0.8272 -3.3923 0.5977 7.95139e-016 0 2.13694e-015 0.565 -2.3158 0.4082 1.19271e-015 0 -1.06847e-015 -0.916 -9.2044 0.2193 7.95139e-016 -7.95139e-016 2.28602e-015 -0.0117 -4.1944 -0.0248 0.0129648 0.0023216 -8.9744e-005 -0.0071 -2.3249 -0.0142 -1.69809e-006 1.99849e-006 1.71084e-007 -0.6113 -8.7231 -2.0637 7.95139e-016 -7.95139e-016 2.28602e-015 0.1927 -3.8059 -0.2383 0.016332 0.00303829 -0.000874573 0.1091 -2.1688 -0.1362 1.63162e-006 -2.81067e-006 -1.78635e-006 0.6151 -8.0947 -3.564 7.95139e-016 -7.95139e-016 2.28602e-015 0.4882 -2.341 -0.6462 0.0145732 0.00367618 -0.00326665 0.3574 -1.7166 -0.4742 1.76463e-006 3.70753e-008 1.44438e-006 1.4199 -1.8761 1.4221 7.95139e-016 -7.95139e-016 2.28602e-015 1.1472 -3.4929 2.6336 7.95139e-016 0 2.13694e-015 0.8229 -2.3 1.6571 1.19271e-015 0 -1.06847e-015 -9.412 3.9771 -0.7758 -118.186 -25.4117 -104.459 -0.7531 -40.938 0 176.953 43.3746 177.617 0 -40.1986 7.10543e-015 4.99336 14.5007 -7.93528 8.88178e-016 -4.4182 9.239 -5.95099e-006 2.8397e-006 7.86302e-006 9.4119 3.9773 -0.7758 118.184 -25.4288 104.465 0.7532 -40.9383 0 -176.87 43.3818 -177.645 1.77636e-015 -40.1986 0 -5.00312 14.4902 7.93266 -2.22045e-015 -4.4182 9.239 2.05851e-006 -1.32983e-005 -4.32101e-006 
-0.000357183 5.75548 -7.62767 -1.36932e-007 85.2623 1.4423e-007 -5.42101e-020 8.7983 -4.7612 -0.310287 0.194038 -0.106534 1.73472e-017 8.0291 0.4195 -0.620226 0.388662 -0.21202 5.55112e-017 9.9351 -2.2114 -0.620217 0.388653 -0.212017 -2.77556e-016 22.3885 -0.4656 24.8489 14.5837 -6.65288 -0.0001 12.643 3.4389 19.4399 21.8116 -7.47376 2.2603 21.606 7.4023 -8.00254 -0.194563 -12.5013 13.5163 -1.1332 -5.0146 41.0906 -54.0592 46.1146 -0.0995 -28.05 -0.2431 -162.624 -57.0654 154.779 0.0679 -23.3996 -0.1402 -6.61519 1.42848 -7.33667 0.7932 -9.069 2.5189 -4.81853e-007 4.43541e-009 -4.22774e-006 -0.8272 -3.3923 0.5977 -1.98785e-016 -1.59028e-015 6.26172e-015 -0.5649 -2.3158 0.4082 0 0 -3.72721e-017 0.9159 -9.2044 0.2193 -4.81853e-007 4.43541e-009 -4.22774e-006 0.0117 -4.1944 -0.0248 -0.0128343 0.00232902 8.64178e-005 0.0071 -2.3249 -0.0142 5.96354e-016 -7.95139e-016 4.29872e-015 0.6113 -8.7231 -2.0637 -4.81853e-007 4.43541e-009 -4.22774e-006 -0.1927 -3.8059 -0.2383 -0.016068 0.00299787 0.000857928 -0.1091 -2.1688 -0.1362 -7.95139e-016 -7.95139e-016 -2.83268e-015 -0.6151 -8.0947 -3.5641 -4.81853e-007 4.43541e-009 -4.22774e-006 -0.4882 -2.341 -0.6462 -0.0125879 0.0031305 0.00283112 -0.3575 -1.7167 -0.4742 -1.70209e-006 -2.70988e-006 1.29281e-007 -1.42 -1.8761 1.4223 -4.81853e-007 4.43541e-009 -4.22774e-006 -1.1471 -3.4929 2.6334 -1.98785e-016 -1.59028e-015 6.26172e-015 -0.823 -2.3 1.6571 0 0 -3.72721e-017 -2.2603 21.606 7.4023 7.13364 -0.0289224 7.0357 -13.5187 -1.1334 -5.0155 -34.1398 -56.0264 -38.6236 0.0994 -28.0499 -0.2431 166.972 -56.5748 -151.635 -0.0679 -23.3996 -0.1402 6.45464 1.2846 7.50887 -0.7932 -9.0691 2.5189 1.22818e-006 -1.93886e-005 7.10993e-006 0.8272 -3.3923 0.5977 -3.97569e-016 1.59028e-015 -2.80783e-015 0.565 -2.3158 0.4082 -1.54142e-031 2.38542e-015 3.70236e-015 -0.916 -9.2044 0.2193 1.22818e-006 -1.93886e-005 7.10993e-006 -0.0117 -4.1944 -0.0248 0.0129555 0.00232181 -9.38015e-005 -0.0071 -2.3249 -0.0142 7.95139e-016 7.95139e-016 2.80783e-015 -0.6113 -8.7231 -2.0637 1.22818e-006 -1.93886e-005 7.10993e-006 0.1927 -3.8059 -0.2383 0.0163237 0.00305446 -0.000873978 0.1091 -2.1688 -0.1362 -4.3949e-006 2.3592e-006 -7.01351e-006 0.6151 -8.0947 -3.564 1.22818e-006 -1.93886e-005 7.10993e-006 0.4882 -2.341 -0.6462 0.0146085 0.00369316 -0.00327911 0.3574 -1.7166 -0.4742 7.95139e-016 -7.95139e-016 -2.06239e-015 1.4199 -1.8761 1.4221 1.22818e-006 -1.93886e-005 7.10993e-006 1.1472 -3.4929 2.6336 -3.97569e-016 1.59028e-015 -2.80783e-015 0.8229 -2.3 1.6571 -1.54142e-031 2.38542e-015 3.70236e-015 -9.412 3.9771 -0.7758 -117.724 -25.6835 -103.981 -0.7531 -40.938 1.77636e-015 176.953 43.3709 177.624 8.88179e-016 -40.1986 7.10543e-015 4.63728 14.3959 -7.78514 -3.10863e-015 -4.4182 9.239 3.54658e-006 2.11889e-006 6.56782e-006 9.4119 3.9773 -0.7758 117.722 -25.7026 103.986 0.7532 -40.9383 -8.88178e-016 -176.87 43.3794 -177.652 -8.88179e-016 -40.1986 7.10543e-015 -4.64516 14.3696 7.78038 -2.22045e-015 -4.4182 9.239 7.19837e-006 -5.5326e-008 3.97992e-006 
-0.000362795 5.70384 -7.59732 -3.9707e-008 84.822 2.89531e-008 0 8.7983 -4.7612 -0.310635 0.30554 -0.104751 -1.73472e-017 8.0291 0.4195 -0.620731 0.611642 -0.20785 8.32668e-017 9.9351 -2.2114 -0.620725 0.611657 -0.207847 1.11022e-016 22.3885 -0.4656 24.8491 14.5834 -6.65266 -0.0001 12.643 3.4389 19.4399 21.8116 -7.47377 2.2603 21.606 7.4023 -8.00225 -0.194872 -12.5013 13.5163 -1.1332 -5.0146 41.0906 -54.0593 46.1146 -0.0995 -28.05 -0.2431 -162.624 -57.0654 154.779 0.0679 -23.3996 -0.1402 -6.61521 1.42845 -7.33668 0.7932 -9.069 2.5189 2.86922e-006 -6.9816e-006 -6.1707e-006 -0.8272 -3.3923 0.5977 1.70214e-006 1.8631e-006 -1.27672e-007 -0.5649 -2.3158 0.4082 7.95139e-016 2.38542e-015 2.03754e-015 0.9159 -9.2044 0.2193 2.86922e-006 -6.9816e-006 -6.1707e-006 0.0117 -4.1944 -0.0248 -0.0128153 0.00233435 8.40278e-005 0.0071 -2.3249 -0.0142 2.41459e-006 1.94731e-006 5.36915e-006 0.6113 -8.7231 -2.0637 2.86922e-006 -6.9816e-006 -6.1707e-006 -0.1927 -3.8059 -0.2383 -0.01605 0.0030007 0.000854418 -0.1091 -2.1688 -0.1362 1.65686e-006 2.75441e-006 -1.81577e-006 -0.6151 -8.0947 -3.5641 2.86922e-006 -6.9816e-006 -6.1707e-006 -0.4882 -2.341 -0.6462 -0.0125931 0.0031234 0.00282205 -0.3575 -1.7167 -0.4742 1.70214e-006 1.86301e-006 -1.27577e-007 -1.42 -1.8761 1.4223 2.86922e-006 -6.9816e-006 -6.1707e-006 -1.1471 -3.4929 2.6334 1.70214e-006 1.8631e-006 -1.27672e-007 -0.823 -2.3 1.6571 7.95139e-016 2.38542e-015 2.03754e-015 -2.2603 21.606 7.4023 7.13392 -0.0292328 7.03583 -13.5187 -1.1334 -5.0155 -34.1398 -56.0264 -38.6236 0.0994 -28.0499 -0.2431 166.972 -56.5748 -151.635 -0.0679 -23.3996 -0.1402 6.45463 1.28459 7.50889 -0.7932 -9.0691 2.5189 -8.41401e-032 3.18055e-015 1.51573e-015 0.8272 -3.3923 0.5977 -4.04763e-006 2.82414e-007 -4.02661e-006 0.565 -2.3158 0.4082 1.19411e-005 -5.08532e-006 4.41879e-007 -0.916 -9.2044 0.2193 -8.41401e-032 3.18055e-015 1.51573e-015 -0.0117 -4.1944 -0.0248 0.0129293 0.00231753 -9.29671e-005 -0.0071 -2.3249 -0.0142 7.95139e-016 7.95139e-016 -3.2054e-015 -0.6113 -8.7231 -2.0637 -8.41401e-032 3.18055e-015 1.51573e-015 0.1927 -3.8059 -0.2383 0.0163454 0.00304434 -0.0008824 0.1091 -2.1688 -0.1362 3.97569e-016 7.95139e-016 8.94531e-016 0.6151 -8.0947 -3.564 -8.41401e-032 3.18055e-015 1.51573e-015 0.4882 -2.341 -0.6462 0.014576 0.00369816 -0.00326968 0.3574 -1.7166 -0.4742 5.84498e-031 1.19271e-014 -2.80783e-015 1.4199 -1.8761 1.4221 -8.41401e-032 3.18055e-015 1.51573e-015 1.1472 -3.4929 2.6336 -4.04763e-006 2.82414e-007 -4.02661e-006 0.8229 -2.3 1.6571 1.19411e-005 -5.08532e-006 4.41879e-007 -9.412 3.9771 -0.7758 -117.258 -25.9521 -103.498 -0.7531 -40.938 1.77636e-015 176.954 43.3673 177.63 -8.88178e-016 -40.1986 0 4.28155 14.2901 -7.63575 -1.33227e-015 -4.4182 9.239 -1.98305e-006 -4.5317e-006 2.60966e-006 9.4119 3.9773 -0.7758 117.256 -25.9732 103.503 0.7532 -40.9383 8.88179e-016 -176.871 43.3771 -177.659 -1.77636e-015 -40.1986 7.10543e-015 -4.2877 14.248 7.62897 8.88179e-016 -4.4182 9.239 1.08801e-006 6.33156e-006 3.62681e-006 
-0.000368399 5.6524 -7.56652 5.81435e-008 84.3815 -6.28845e-008 0 8.7983 -4.7612 -0.310837 0.416934 -0.102909 6.9389e-018 8.0291 0.4195 -0.620942 0.834414 -0.203559 5.55112e-017 9.9351 -2.2114 -0.620948 0.834434 -0.203561 -1.11022e-016 22.3885 -0.4656 24.8487 14.5839 -6.65308 -0.0001 12.643 3.4389 19.4399 21.8116 -7.47379 2.2603 21.606 7.4023 -8.0028 -0.19429 -12.5014 13.5163 -1.1332 -5.0146 41.0906 -54.0592 46.1146 -0.0995 -28.05 -0.2431 -162.624 -57.0654 154.779 0.0679 -23.3996 -0.1402 -6.61521 1.42844 -7.3367 0.7932 -9.069 2.5189 1.98785e-016 2.38542e-015 -8.4235e-015 -0.8272 -3.3923 0.5977 -4.64988e-006 7.11253e-006 2.91591e-006 -0.5649 -2.3158 0.4082 -2.60166e-006 1.04891e-005 9.12494e-006 0.9159 -9.2044 0.2193 1.98785e-016 2.38542e-015 -8.4235e-015 0.0117 -4.1944 -0.0248 -0.0128214 0.00233942 8.77634e-005 0.0071 -2.3249 -0.0142 3.97569e-016 7.95139e-016 4.74598e-015 0.6113 -8.7231 -2.0637 1.98785e-016 2.38542e-015 -8.4235e-015 -0.1927 -3.8059 -0.2383 -0.0160428 0.00300223 0.000861934 -0.1091 -2.1688 -0.1362 -1.98785e-016 1.59028e-015 -4.47266e-015 -0.6151 -8.0947 -3.5641 1.98785e-016 2.38542e-015 -8.4235e-015 -0.4882 -2.341 -0.6462 -0.0126002 0.00313653 0.00282588 -0.3575 -1.7167 -0.4742 -1.66369e-006 -1.90858e-006 1.81468e-006 -1.42 -1.8761 1.4223 1.98785e-016 2.38542e-015 -8.4235e-015 -1.1471 -3.4929 2.6334 -4.64988e-006 7.11253e-006 2.91591e-006 -0.823 -2.3 1.6571 -2.60166e-006 1.04891e-005 9.12494e-006 -2.2603 21.606 7.4023 7.13338 -0.0287033 7.03558 -13.5187 -1.1334 -5.0155 -34.1399 -56.0264 -38.6236 0.0994 -28.0499 -0.2431 166.972 -56.5748 -151.635 -0.0679 -23.3996 -0.1402 6.45463 1.28459 7.50886 -0.7932 -9.0691 2.5189 -3.97569e-016 2.38542e-015 2.01269e-015 0.8272 -3.3923 0.5977 -3.98961e-007 -1.26432e-005 -4.60675e-006 0.565 -2.3158 0.4082 3.97569e-016 0 -3.03147e-015 -0.916 -9.2044 0.2193 -3.97569e-016 2.38542e-015 2.01269e-015 -0.0117 -4.1944 -0.0248 0.012947 0.00229357 -8.92292e-005 -0.0071 -2.3249 -0.0142 1.65239e-006 -2.8151e-006 -1.7834e-006 -0.6113 -8.7231 -2.0637 -3.97569e-016 2.38542e-015 2.01269e-015 0.1927 -3.8059 -0.2383 0.0163443 0.00302797 -0.000869222 0.1091 -2.1688 -0.1362 -3.97569e-016 -7.95139e-016 -7.1811e-015 0.6151 -8.0947 -3.564 -3.97569e-016 2.38542e-015 2.01269e-015 0.4882 -2.341 -0.6462 0.0145805 0.00367105 -0.00326179 0.3574 -1.7166 -0.4742 -4.55184e-032 1.59028e-015 1.63997e-015 1.4199 -1.8761 1.4221 -3.97569e-016 2.38542e-015 2.01269e-015 1.1472 -3.4929 2.6336 -3.98961e-007 -1.26432e-005 -4.60675e-006 0.8229 -2.3 1.6571 3.97569e-016 0 -3.03147e-015 -9.412 3.9771 -0.7758 -116.789 -26.2173 -103.012 -0.7531 -40.938 0 176.954 43.3637 177.637 0 -40.1986 7.10543e-015 3.92623 14.1833 -7.48713 -8.88179e-016 -4.4182 9.239 -8.71686e-007 -6.28105e-006 6.22644e-006 9.4119 3.9773 -0.7758 116.786 -26.2404 103.016 0.7532 -40.9383 1.77636e-015 -176.871 43.3748 -177.666 1.77636e-015 -40.1986 7.10543e-015 -3.93063 14.1253 7.47845 8.88178e-016 -4.4182 9.239 6.39636e-006 3.44965e-006 -2.25835e-006 
